<?xml version="1.0" standalone="no"?>
<!DOCTYPE svg PUBLIC "-//W3C//DTD SVG 1.1//EN" "http://www.w3.org/Graphics/SVG/1.1/DTD/svg11.dtd">
<svg class="icon" width="32.00px" height="20.00px" viewBox="0 0 1024 1024" version="1.1" xmlns="http://www.w3.org/2000/svg">
    <path d="M480.704 158.656S518.4 44.8 552.768 66.88A587.456 587.456 0 0 1 601.6 159.232a78.848 78.848 0 0 1 45.504-14.976 371.2 371.2 0 0 1-66.112 369.344 292.736 292.736 0 0 1 91.904 291.2c88.192 0 133.568-85.888 246.08-91.2a34.624 34.624 0 0 1 14.976 67.52c-78.208 11.072-155.328 98.432-312.96 142.848-20.352 30.976-141.824 27.52-237.44 36.096-101.184 1.088-75.072-77.824-38.4-91.2a309.824 309.824 0 0 1-29.376-24.512C290.304 979.2 221.248 938.112 179.2 926.528c-32.576-17.344 2.304-57.984 2.304-57.984-32 13.632-56.704-46.4-52.992-105.344a172.032 172.032 0 0 1 55.872-92.608 271.808 271.808 0 0 1 121.984-258.048 129.28 129.28 0 0 1-20.096-168.256c63.04-17.536 75.264-92.352 194.432-85.632z" fill="#1E9CEF" />
</svg>